<svg width="16" height="20" viewBox="0 0 16 20" fill="none" xmlns="http://www.w3.org/2000/svg">
<path d="M7.99978 11.1917C8.34122 11.1917 8.67931 11.1244 8.99476 10.9938C9.3102 10.8631 9.59683 10.6716 9.83826 10.4301C10.0797 10.1887 10.2712 9.90209 10.4019 9.58665C10.5325 9.2712 10.5998 8.93311 10.5998 8.59167C10.5998 8.25023 10.5325 7.91214 10.4019 7.59669C10.2712 7.28125 10.0797 6.99462 9.83826 6.75319C9.59683 6.51176 9.3102 6.32024 8.99476 6.18958C8.67931 6.05892 8.34122 5.99167 7.99978 5.99167C7.31022 5.99167 6.6489 6.2656 6.1613 6.75319C5.67371 7.24079 5.39978 7.90211 5.39978 8.59167C5.39978 9.28123 5.67371 9.94255 6.1613 10.4301C6.6489 10.9177 7.31022 11.1917 7.99978 11.1917V11.1917Z" stroke="#828282" stroke-width="1.5"/>
<path d="M1.01663 7.07499C2.65829 -0.141675 13.35 -0.133341 14.9833 7.08333C15.9416 11.3167 13.3083 14.9 11 17.1167C10.1934 17.8946 9.11642 18.3293 7.99579 18.3293C6.87517 18.3293 5.79823 17.8946 4.99163 17.1167C2.69163 14.9 0.0582943 11.3083 1.01663 7.07499V7.07499Z" stroke="#828282" stroke-width="1.5"/>
</svg>
