<svg width="250" height="21" viewBox="0 0 250 21" fill="none" xmlns="http://www.w3.org/2000/svg">
<path d="M0.333333 10.5C0.333333 11.9728 1.52724 13.1667 3 13.1667C4.47276 13.1667 5.66667 11.9728 5.66667 10.5C5.66667 9.02724 4.47276 7.83333 3 7.83333C1.52724 7.83333 0.333333 9.02724 0.333333 10.5ZM244.333 10.5C244.333 11.9728 245.527 13.1667 247 13.1667C248.473 13.1667 249.667 11.9728 249.667 10.5C249.667 9.02724 248.473 7.83333 247 7.83333C245.527 7.83333 244.333 9.02724 244.333 10.5ZM3 11H4V10H3V11ZM6 11H8V10H6V11ZM10 11H12V10H10V11ZM14 11H16V10H14V11ZM18 11H20V10H18V11ZM22 11H24V10H22V11ZM26 11H28V10H26V11ZM30 11H32V10H30V11ZM34 11H36V10H34V11ZM38 11H40V10H38V11ZM42 11H44V10H42V11ZM46 11H48V10H46V11ZM50 11H52V10H50V11ZM54 11H56V10H54V11ZM58 11H60V10H58V11ZM62 11H64V10H62V11ZM66 11H68V10H66V11ZM70 11H72V10H70V11ZM74 11H76V10H74V11ZM78 11H80V10H78V11ZM82 11H84V10H82V11ZM86 11H88V10H86V11ZM90 11H92V10H90V11ZM94 11H96V10H94V11ZM98 11H100V10H98V11ZM102 11H104V10H102V11ZM106 11H108V10H106V11ZM110 11H112V10H110V11ZM114 11H116V10H114V11ZM118 11H120V10H118V11ZM122 11H124V10H122V11ZM126 11H128V10H126V11ZM130 11H132V10H130V11ZM134 11H136V10H134V11ZM138 11H140V10H138V11ZM142 11H144V10H142V11ZM146 11H148V10H146V11ZM150 11H152V10H150V11ZM154 11H156V10H154V11ZM158 11H160V10H158V11ZM162 11H164V10H162V11ZM166 11H168V10H166V11ZM170 11H172V10H170V11ZM174 11H176V10H174V11ZM178 11H180V10H178V11ZM182 11H184V10H182V11ZM186 11H188V10H186V11ZM190 11H192V10H190V11ZM194 11H196V10H194V11ZM198 11H200V10H198V11ZM202 11H204V10H202V11ZM206 11H208V10H206V11ZM210 11H212V10H210V11ZM214 11H216V10H214V11ZM218 11H220V10H218V11ZM222 11H224V10H222V11ZM226 11H228V10H226V11ZM230 11H232V10H230V11ZM234 11H236V10H234V11ZM238 11H240V10H238V11ZM242 11H244V10H242V11ZM246 11H247V10H246V11Z" fill="#FF7A3D"/>
<rect width="20" height="20" transform="translate(115 0.5)" fill="white"/>
<path d="M120.167 8.83333L122.269 8.83333C122.329 8.83333 122.386 8.80459 122.421 8.75597L125.186 4.96686C125.4 4.67348 125.742 4.5 126.105 4.5C126.867 4.5 127.414 5.23525 127.194 5.96516L126.297 8.94444C126.263 9.05515 126.346 9.16667 126.462 9.16667L127.979 9.16667C128.136 9.16667 128.215 9.16667 128.288 9.14379C128.312 9.13623 128.336 9.12683 128.358 9.1157C128.427 9.08205 128.484 9.02789 128.598 8.91958L129.518 8.04719C129.597 7.97175 129.637 7.93402 129.682 7.90637C129.73 7.8772 129.783 7.85629 129.838 7.8445C129.89 7.83333 129.944 7.83333 130.054 7.83333C130.502 7.83333 130.727 7.83333 130.854 7.92088C130.988 8.01228 131.069 8.16255 131.072 8.32422C131.075 8.47907 130.951 8.66634 130.704 9.04088L130.069 10.0049C129.929 10.2176 129.859 10.324 129.845 10.4419C129.841 10.4805 129.841 10.5195 129.845 10.5581C129.859 10.676 129.929 10.7824 130.069 10.9951L130.704 11.9591C130.951 12.3337 131.075 12.5209 131.072 12.6758C131.069 12.8375 130.988 12.9877 130.854 13.0791C130.727 13.1667 130.502 13.1667 130.054 13.1667C129.944 13.1667 129.89 13.1667 129.838 13.1555C129.783 13.1437 129.73 13.1228 129.682 13.0936C129.637 13.066 129.597 13.0283 129.518 12.9528L128.598 12.0804C128.484 11.9721 128.427 11.918 128.358 11.8843C128.336 11.8732 128.312 11.8638 128.288 11.8562C128.215 11.8333 128.136 11.8333 127.979 11.8333L126.462 11.8333C126.346 11.8333 126.263 11.9449 126.297 12.0556L127.194 15.0348C127.414 15.7648 126.867 16.5 126.105 16.5C125.742 16.5 125.4 16.3265 125.186 16.0331L122.421 12.244C122.386 12.1954 122.329 12.1667 122.269 12.1667L120.167 12.1667C119.246 12.1667 118.5 11.4205 118.5 10.5C118.5 9.57953 119.246 8.83333 120.167 8.83333Z" fill="#FF7A3D"/>
</svg>
