<svg width="25" height="24" viewBox="0 0 25 24" fill="none" xmlns="http://www.w3.org/2000/svg">
<path d="M19 9.5L16.1404 9.5C16.0525 9.5 15.9701 9.45686 15.9201 9.38456L11.9837 3.6987C11.6808 3.26111 11.1824 3 10.6502 3C9.57265 3 8.79468 4.03137 9.09071 5.06747L10.4048 9.66667C10.4525 9.83371 10.3271 10 10.1533 10L7.87279 10C7.70954 10 7.62791 10 7.5526 9.97553C7.52769 9.96743 7.50345 9.95739 7.48011 9.9455C7.40955 9.90955 7.35183 9.85183 7.2364 9.7364L5.7636 8.2636C5.64817 8.14817 5.59045 8.09045 5.51989 8.0545C5.49655 8.0426 5.47231 8.03257 5.4474 8.02447C5.37209 8 5.29046 8 5.12721 8L4.62382 8C3.99148 8 3.6753 8 3.5259 8.17067C3.47898 8.22428 3.44405 8.2873 3.42346 8.35551C3.35791 8.57265 3.52548 8.84077 3.86062 9.377L5.20188 11.523C5.33035 11.7286 5.39459 11.8313 5.40726 11.9443C5.41141 11.9813 5.41141 12.0187 5.40726 12.0557C5.39459 12.1687 5.33035 12.2714 5.20188 12.477L3.86062 14.623C3.52548 15.1592 3.35791 15.4273 3.42346 15.6445C3.44405 15.7127 3.47897 15.7757 3.5259 15.8293C3.6753 16 3.99148 16 4.62382 16L5.12721 16C5.29046 16 5.37209 16 5.4474 15.9755C5.47231 15.9674 5.49655 15.9574 5.51989 15.9455C5.59045 15.9095 5.64817 15.8518 5.7636 15.7364L7.2364 14.2636C7.35183 14.1482 7.40955 14.0904 7.48011 14.0545C7.50345 14.0426 7.52769 14.0326 7.5526 14.0245C7.62791 14 7.70954 14 7.87279 14L10.1533 14C10.3271 14 10.4525 14.1663 10.4048 14.3333L9.09071 18.9325C8.79468 19.9686 9.57264 21 10.6502 21C11.1824 21 11.6808 20.7389 11.9837 20.3013L15.9201 14.6154C15.9701 14.5431 16.0525 14.5 16.1404 14.5L19 14.5C20.3807 14.5 21.5 13.3807 21.5 12C21.5 10.6193 20.3807 9.5 19 9.5Z" stroke="#FF7A3D" stroke-width="2" stroke-linejoin="round"/>
</svg>
