<svg width="250" height="21" viewBox="0 0 250 21" fill="none" xmlns="http://www.w3.org/2000/svg">
<path d="M0.333333 10.5C0.333333 11.9728 1.52724 13.1667 3 13.1667C4.47276 13.1667 5.66667 11.9728 5.66667 10.5C5.66667 9.02724 4.47276 7.83333 3 7.83333C1.52724 7.83333 0.333333 9.02724 0.333333 10.5ZM244.333 10.5C244.333 11.9728 245.527 13.1667 247 13.1667C248.473 13.1667 249.667 11.9728 249.667 10.5C249.667 9.02724 248.473 7.83333 247 7.83333C245.527 7.83333 244.333 9.02724 244.333 10.5ZM3 11H4V10H3V11ZM6 11H8V10H6V11ZM10 11H12V10H10V11ZM14 11H16V10H14V11ZM18 11H20V10H18V11ZM22 11H24V10H22V11ZM26 11H28V10H26V11ZM30 11H32V10H30V11ZM34 11H36V10H34V11ZM38 11H40V10H38V11ZM42 11H44V10H42V11ZM46 11H48V10H46V11ZM50 11H52V10H50V11ZM54 11H56V10H54V11ZM58 11H60V10H58V11ZM62 11H64V10H62V11ZM66 11H68V10H66V11ZM70 11H72V10H70V11ZM74 11H76V10H74V11ZM78 11H80V10H78V11ZM82 11H84V10H82V11ZM86 11H88V10H86V11ZM90 11H92V10H90V11ZM94 11H96V10H94V11ZM98 11H100V10H98V11ZM102 11H104V10H102V11ZM106 11H108V10H106V11ZM110 11H112V10H110V11ZM114 11H116V10H114V11ZM118 11H120V10H118V11ZM122 11H124V10H122V11ZM126 11H128V10H126V11ZM130 11H132V10H130V11ZM134 11H136V10H134V11ZM138 11H140V10H138V11ZM142 11H144V10H142V11ZM146 11H148V10H146V11ZM150 11H152V10H150V11ZM154 11H156V10H154V11ZM158 11H160V10H158V11ZM162 11H164V10H162V11ZM166 11H168V10H166V11ZM170 11H172V10H170V11ZM174 11H176V10H174V11ZM178 11H180V10H178V11ZM182 11H184V10H182V11ZM186 11H188V10H186V11ZM190 11H192V10H190V11ZM194 11H196V10H194V11ZM198 11H200V10H198V11ZM202 11H204V10H202V11ZM206 11H208V10H206V11ZM210 11H212V10H210V11ZM214 11H216V10H214V11ZM218 11H220V10H218V11ZM222 11H224V10H222V11ZM226 11H228V10H226V11ZM230 11H232V10H230V11ZM234 11H236V10H234V11ZM238 11H240V10H238V11ZM242 11H244V10H242V11ZM246 11H247V10H246V11Z" fill="#FF7A3D"/>
<rect width="20" height="20" transform="translate(115 0.5)" fill="white"/>
<path d="M129.833 8.83333L127.731 8.83333C127.671 8.83333 127.614 8.80459 127.579 8.75597L124.814 4.96686C124.6 4.67348 124.258 4.5 123.895 4.5C123.133 4.5 122.586 5.23525 122.806 5.96516L123.703 8.94444C123.737 9.05515 123.654 9.16667 123.538 9.16667L122.021 9.16667C121.864 9.16667 121.785 9.16667 121.712 9.14379C121.688 9.13623 121.664 9.12683 121.642 9.1157C121.573 9.08205 121.516 9.02789 121.402 8.91958L120.482 8.04719C120.403 7.97175 120.363 7.93402 120.318 7.90637C120.27 7.8772 120.217 7.85629 120.162 7.8445C120.11 7.83333 120.056 7.83333 119.946 7.83333C119.498 7.83333 119.273 7.83333 119.146 7.92088C119.012 8.01228 118.931 8.16255 118.928 8.32422C118.925 8.47907 119.049 8.66634 119.296 9.04088L119.931 10.0049C120.071 10.2176 120.141 10.324 120.155 10.4419C120.159 10.4805 120.159 10.5195 120.155 10.5581C120.141 10.676 120.071 10.7824 119.931 10.9951L119.296 11.9591C119.049 12.3337 118.925 12.5209 118.928 12.6758C118.931 12.8375 119.012 12.9877 119.146 13.0791C119.273 13.1667 119.498 13.1667 119.946 13.1667C120.056 13.1667 120.11 13.1667 120.162 13.1555C120.217 13.1437 120.27 13.1228 120.318 13.0936C120.363 13.066 120.403 13.0283 120.482 12.9528L121.402 12.0804C121.516 11.9721 121.573 11.918 121.642 11.8843C121.664 11.8732 121.688 11.8638 121.712 11.8562C121.785 11.8333 121.864 11.8333 122.021 11.8333L123.538 11.8333C123.654 11.8333 123.737 11.9449 123.703 12.0556L122.806 15.0348C122.586 15.7648 123.133 16.5 123.895 16.5C124.258 16.5 124.6 16.3265 124.814 16.0331L127.579 12.244C127.614 12.1954 127.671 12.1667 127.731 12.1667L129.833 12.1667C130.754 12.1667 131.5 11.4205 131.5 10.5C131.5 9.57953 130.754 8.83333 129.833 8.83333Z" fill="#FF7A3D"/>
</svg>
