<svg width="86" height="25" viewBox="0 0 86 25" fill="none" xmlns="http://www.w3.org/2000/svg">
<path d="M15.6381 21.8328C15.456 21.8452 15.2792 21.8564 15.0966 21.8564C14.8904 21.8564 14.6906 21.8387 14.4844 21.8328L15.0848 20.3852L15.6381 21.8328ZM16.3033 23.4749C16.4093 23.469 16.5743 23.4401 16.7387 23.4401C16.9037 23.4401 17.1099 23.469 17.1983 23.4749C16.9331 22.904 16.5442 22.0149 16.3209 21.5029C16.1088 21.0091 15.7559 20.1848 15.4737 19.3782C15.4089 19.3959 15.3494 19.4083 15.2851 19.4083C15.2144 19.4083 15.1555 19.3959 15.0907 19.3782C14.9499 19.8608 14.6076 20.6261 14.0137 21.9571L13.3308 23.4749C13.4127 23.4631 13.4958 23.4401 13.5953 23.4401C13.6896 23.4401 13.8022 23.4631 13.8781 23.4749C13.9719 23.1396 14.1604 22.6506 14.3483 22.1981C14.584 22.1857 14.8197 22.1745 15.0548 22.1745C15.3081 22.1745 15.5556 22.1857 15.8095 22.1981L16.0558 22.8221L16.3033 23.4749ZM17.7142 20.7969C17.7142 21.8033 17.7142 22.7749 17.6495 23.4748C17.7796 23.4695 17.944 23.4401 18.0731 23.4401C18.2086 23.4401 18.35 23.4695 18.4855 23.4748C18.4384 22.9982 18.4266 22.3624 18.4266 21.4857C18.4266 20.8906 18.4266 19.8731 18.4914 19.4371C18.35 19.4548 18.2033 19.473 18.0731 19.473C17.9853 19.473 17.7667 19.4495 17.6553 19.4371C17.7142 20.0074 17.7142 20.4258 17.7142 20.7969ZM21.2149 21.4739C21.7511 21.3737 22.2395 21.0379 22.2395 20.385C22.2395 20.1376 22.1452 19.896 21.9691 19.7251C21.7163 19.4842 21.427 19.437 21.0446 19.437C20.9091 19.437 20.2263 19.4665 20.0737 19.4665C19.7732 19.4665 19.62 19.4494 19.4851 19.437C19.5257 20.1965 19.5257 20.279 19.5257 21.0503C19.5257 22.1856 19.5198 22.3152 19.4733 23.4748C19.6029 23.4577 19.7443 23.44 19.8786 23.44C20.0265 23.44 20.1556 23.463 20.2734 23.4748C20.2734 23.3221 20.2498 22.5627 20.2498 22.3918V21.5564H20.3912C20.7094 22.0036 21.0735 22.5214 21.374 22.9869C21.4624 23.1218 21.592 23.3399 21.6804 23.4748C21.8571 23.4512 21.9278 23.44 22.1576 23.44C22.3692 23.44 22.5164 23.4577 22.6808 23.4748C22.3102 23.0105 22.1506 22.8043 21.6863 22.1508C21.5979 22.0271 21.4683 21.8327 21.3799 21.7096L21.2149 21.4739ZM20.2498 19.7552C20.3382 19.7487 20.5562 19.7251 20.6682 19.7251C20.862 19.7251 21.057 19.7552 21.2149 19.8731C21.4211 20.0257 21.4624 20.2378 21.4624 20.4852C21.4624 20.867 21.245 21.2977 20.6564 21.2977C20.5032 21.2977 20.3618 21.2853 20.2498 21.2794V19.7552ZM24.2808 22.098C24.0051 21.2796 23.6221 20.1319 23.4395 19.4372C23.2922 19.4608 23.1631 19.4726 23.0276 19.4726C22.8862 19.4726 22.6859 19.4496 22.5681 19.4372C22.776 19.9845 22.9783 20.5338 23.1749 21.0852C23.446 21.8505 23.6221 22.3808 23.8342 23.0272L23.9809 23.4749C24.0634 23.4578 24.1571 23.4402 24.2225 23.4402C24.2873 23.4402 24.3462 23.4514 24.4458 23.4749C24.5401 23.1692 24.652 22.7927 24.7351 22.5511C24.9637 21.88 24.9937 21.7857 25.2942 20.9503L25.4704 20.4618C25.5352 20.6498 25.6472 20.9503 25.7114 21.1382C25.7762 21.3209 26.0767 22.2217 26.1474 22.4221C26.2417 22.6866 26.2646 22.7626 26.4826 23.4749C26.5357 23.469 26.647 23.4402 26.736 23.4402C26.8184 23.4402 26.8827 23.4578 26.9711 23.4749C27.195 22.775 27.2185 22.7043 27.5479 21.7622C27.8719 20.8436 28.0717 20.3204 28.4246 19.4372C28.3362 19.4608 28.249 19.4726 28.1601 19.4726C28.0481 19.4726 27.9544 19.4549 27.8896 19.4372C27.6775 20.2026 27.572 20.5738 27.4012 21.0793C27.1243 21.903 27.0889 21.9972 26.9186 22.445C26.7301 21.9389 26.5474 21.4263 26.3766 20.909C26.2829 20.6262 25.9229 19.4496 25.9176 19.4372C25.8357 19.4549 25.7762 19.4726 25.6584 19.4726C25.5535 19.4726 25.4757 19.4496 25.3997 19.4372C25.2229 20.1554 24.599 21.8859 24.5401 22.045L24.3928 22.4273L24.2808 22.098ZM30.2204 21.8328C30.0378 21.8452 29.8616 21.8564 29.6784 21.8564C29.4728 21.8564 29.2725 21.8387 29.0668 21.8328L29.6666 20.3852L30.2204 21.8328ZM30.8851 23.4749C30.9917 23.469 31.1567 23.4401 31.321 23.4401C31.486 23.4401 31.6922 23.469 31.78 23.4749C31.5155 22.904 31.1266 22.0149 30.9027 21.5029C30.6906 21.0091 30.3377 20.1848 30.0555 19.3782C29.9907 19.3959 29.9317 19.4083 29.8669 19.4083C29.7968 19.4083 29.7373 19.3959 29.6725 19.3782C29.5317 19.8608 29.19 20.6261 28.5954 21.9571L27.9126 23.4749C27.9957 23.4631 28.0776 23.4401 28.1777 23.4401C28.272 23.4401 28.3833 23.4631 28.4605 23.4749C28.5542 23.1396 28.7433 22.6506 28.9313 22.1981C29.1664 22.1857 29.4021 22.1745 29.6371 22.1745C29.8905 22.1745 30.1374 22.1857 30.3907 22.1981L30.6382 22.8221L30.8851 23.4749ZM33.3561 21.8976C33.3561 21.8451 33.3914 21.7803 33.4326 21.709C33.6801 21.2854 33.9093 20.8435 34.1744 20.4199C34.2622 20.2785 34.6923 19.5962 34.7813 19.4371C34.7159 19.4607 34.6511 19.473 34.5338 19.473C34.4036 19.473 34.2858 19.4548 34.1915 19.4371C33.7679 20.3674 33.6736 20.5672 33.174 21.4268C32.6738 20.5501 32.4499 20.0852 32.1435 19.4371C31.9732 19.4666 31.8018 19.473 31.6609 19.473C31.5313 19.473 31.3958 19.4606 31.1784 19.4371C31.4842 19.9491 31.985 20.7616 32.2849 21.2795L32.6319 21.8799C32.6319 22.2452 32.6143 23.0158 32.5972 23.4748C32.7085 23.463 32.8735 23.4401 32.9908 23.4401C33.1263 23.4401 33.2624 23.463 33.3979 23.4748C33.3737 22.9275 33.3561 22.6099 33.3561 22.115V21.8976ZM35.1204 22.5925C35.0915 22.8747 35.085 22.9513 34.9849 23.2571C35.197 23.3632 35.5799 23.5576 36.0855 23.5576C37.1631 23.5576 37.5808 22.8694 37.5808 22.2685C37.5808 22.1035 37.5396 21.7559 37.2927 21.4913C37.1219 21.3028 36.9451 21.2385 36.492 21.0618C35.9747 20.8615 35.6736 20.7436 35.6736 20.3141C35.6736 19.9671 35.9034 19.6784 36.3683 19.6784C36.7389 19.6784 37.0517 19.8551 37.1395 20.1904H37.222C37.2751 19.9671 37.2868 19.9199 37.4047 19.6312C37.116 19.5022 36.8567 19.3903 36.4272 19.3903C35.3614 19.3903 35.0556 20.0496 35.0556 20.5669C35.0556 21.0559 35.227 21.3564 35.7974 21.6092C35.9617 21.6799 36.2392 21.7853 36.4036 21.8566C36.5156 21.9031 36.8868 22.0675 36.8868 22.533C36.8868 22.9572 36.5798 23.2695 36.1155 23.2695C35.7679 23.2695 35.4733 23.1811 35.2029 22.5925H35.1204Z" fill="#505967"/>
<path d="M2.41921 11.7145C2.41921 7.26497 4.80306 6.06361 6.60481 6.06361C9.50067 6.06361 10.7545 8.46575 10.7545 11.0264C10.7545 12.4917 10.5777 13.8692 9.85361 14.9822C9.12949 16.094 7.92931 16.7656 6.6219 16.7656C3.35543 16.7656 2.41921 13.6571 2.41921 11.7145ZM11.2135 20.8099C11.7432 20.4387 12.5733 19.9797 13.1737 19.7146L9.18312 17.2417C11.6371 16.3768 13.1737 14.1868 13.1737 11.2026C13.1737 6.96509 9.94198 5.16335 6.63958 5.16335C3.07323 5.16332 0 7.14124 0 11.6267C0 12.5794 0.212106 14.3812 1.69509 15.8824C3.2317 17.4367 5.05055 17.6659 6.58713 17.6659C6.78098 17.6659 6.97484 17.6659 7.16987 17.6488L11.2135 20.8099ZM21.4118 12.4918C20.8639 12.5278 20.3348 12.5631 19.7863 12.5631C19.1688 12.5631 18.5684 12.5095 17.951 12.4918L19.7521 8.14776L21.4118 12.4918ZM23.4075 17.4187C23.725 17.401 24.22 17.3126 24.7137 17.3126C25.2092 17.3126 25.8261 17.401 26.0918 17.4187C25.297 15.7059 24.1316 13.0392 23.4599 11.5026C22.8242 10.0196 21.7648 7.5468 20.9176 5.12759C20.7231 5.1812 20.5464 5.21655 20.3525 5.21655C20.1404 5.21655 19.9637 5.1812 19.7698 5.12756C19.3456 6.57638 18.3216 8.87185 16.5381 12.8624L14.4889 17.4187C14.7363 17.3839 14.9838 17.3126 15.2837 17.3126C15.5659 17.3126 15.9023 17.3839 16.1315 17.4187C16.4137 16.4117 16.98 14.9464 17.5444 13.5866C18.2503 13.5518 18.9567 13.5164 19.6631 13.5164C20.4226 13.5164 21.1644 13.5518 21.9245 13.5866L22.665 15.459L23.4075 17.4187ZM31.2435 8.46581C31.2435 7.79472 31.2606 7.12362 31.2783 6.48731C32.4967 6.48731 33.7511 6.50556 34.7928 6.61101C34.7398 6.3288 34.7044 6.1703 34.7044 5.97587C34.7044 5.83447 34.7398 5.60411 34.7928 5.30481C33.0977 5.39258 31.5434 5.41026 30.0775 5.41026C28.7177 5.41026 26.7575 5.39258 25.3622 5.30481C25.4159 5.51691 25.4506 5.74609 25.4506 5.9582C25.4506 6.1703 25.4159 6.39951 25.3622 6.61101C26.2637 6.52324 27.9588 6.48731 28.1173 6.48731H29.0005C29.0182 7.17665 29.0359 7.79472 29.0359 8.44813L29.0535 13.3743C29.0535 14.7171 28.9481 16.0769 28.8768 17.4185C29.5125 17.3484 29.7776 17.3131 30.0775 17.3131C30.2896 17.3131 30.8547 17.3661 31.3673 17.4185C31.3137 16.9248 31.2435 16.3415 31.2435 14.9999V8.46581ZM41.0726 12.4918C40.5253 12.5278 39.9956 12.5631 39.4482 12.5631C38.8296 12.5631 38.2298 12.5095 37.6112 12.4918L39.4129 8.14776L41.0726 12.4918ZM43.0682 17.4187C43.3858 17.401 43.8807 17.3126 44.375 17.3126C44.8694 17.3126 45.4874 17.401 45.7526 17.4187C44.9577 15.7059 43.7923 13.0392 43.1213 11.5026C42.4855 10.0196 41.4256 7.5468 40.5783 5.12759C40.3839 5.1812 40.2071 5.21655 40.0133 5.21655C39.8012 5.21655 39.6244 5.1812 39.43 5.12756C39.0069 6.57638 37.9823 8.87185 36.1983 12.8624L34.1502 17.4187C34.3971 17.3839 34.6452 17.3126 34.9451 17.3126C35.2273 17.3126 35.5625 17.3839 35.7929 17.4187C36.0757 16.4117 36.6402 14.9464 37.2052 13.5866C37.9111 13.5518 38.6175 13.5164 39.3245 13.5164C40.084 13.5164 40.8258 13.5518 41.5846 13.5866L42.3264 15.459L43.0682 17.4187ZM52.8647 11.4153C54.4714 11.1149 55.9373 10.1085 55.9373 8.14771C55.9373 7.40591 55.6545 6.68177 55.1242 6.17039C54.3653 5.44627 53.4998 5.30487 52.3521 5.30487C51.9455 5.30487 49.8975 5.39264 49.438 5.39264C48.5371 5.39264 48.0781 5.33961 47.6727 5.30487C47.7959 7.58267 47.7959 7.82952 47.7959 10.1427C47.7959 13.5517 47.7782 13.9394 47.6374 17.4186C48.0257 17.3661 48.4493 17.3125 48.8552 17.3125C49.2965 17.3125 49.6854 17.3838 50.0383 17.4186C50.0383 16.959 49.9682 14.6818 49.9682 14.1692V11.6616H50.3924C51.3457 13.0038 52.4411 14.5581 53.3413 15.9532C53.6059 16.3598 53.9941 17.0132 54.2587 17.4186C54.789 17.3484 55.0011 17.3125 55.6892 17.3125C56.325 17.3125 56.7669 17.3662 57.2612 17.4186C56.1488 16.0239 55.6727 15.4059 54.277 13.4457C54.0118 13.0745 53.6236 12.4918 53.3584 12.1212L52.8647 11.4153ZM49.9682 6.25816C50.2328 6.24109 50.8862 6.17039 51.222 6.17039C51.8047 6.17039 52.3868 6.25816 52.8647 6.61109C53.4821 7.07066 53.6059 7.70579 53.6059 8.44819C53.6059 9.59591 52.9525 10.8851 51.1867 10.8851C50.7271 10.8851 50.3035 10.8491 49.9682 10.8326V6.25816Z" fill="#5C0632"/>
<path d="M79.2625 11.4482C79.2625 11.5618 77.6641 11.6685 75.3821 11.7581C74.9791 11.5295 74.6733 11.2997 74.4494 11.1017C77.2168 11.1995 79.2625 11.3203 79.2625 11.4482ZM77.6233 7.59562C77.6233 7.69048 76.2835 7.77944 74.368 7.85602C74.6426 7.69579 74.9254 7.53435 75.2223 7.37232C76.6694 7.43887 77.6233 7.51606 77.6233 7.59562ZM63.351 15.8837C62.4643 15.8944 61.6866 15.8985 61.0791 15.8985C60.2048 15.8985 59.4966 15.6292 59.4966 15.2952C59.4966 14.9628 60.2047 14.6936 61.0791 14.6936C61.8533 14.6936 62.9021 14.7018 64.1052 14.7171C63.6398 15.3888 63.4188 15.7924 63.3982 15.8177C63.3846 15.8372 63.3675 15.8602 63.351 15.8837ZM63.8287 16.6906C64.1209 17.0436 64.4014 17.3405 64.7767 17.6652C64.7767 17.6652 64.9181 17.8672 65.3476 17.694C65.7848 17.5161 66.1554 17.2739 66.5731 16.7136C67.7928 16.7342 69.0861 16.7614 70.3593 16.7902C70.4641 16.9428 70.6768 17.2586 70.939 17.6481C67.3898 17.74 63.5376 17.7948 61.5644 17.7948C60.7425 17.7948 60.0756 17.5396 60.0756 17.2274C60.0756 16.9133 60.7425 16.66 61.5644 16.66C62.1654 16.66 62.9396 16.6641 63.8257 16.6741C63.8256 16.6798 63.8266 16.6854 63.8287 16.6906ZM62.4557 19.6506C61.7263 19.6506 61.1353 19.4261 61.1353 19.1491C61.1353 18.8716 61.7263 18.6465 62.4557 18.6465C64.3853 18.6465 68.3411 18.7055 71.729 18.8015C71.8922 19.0354 72.0554 19.2682 72.2103 19.482C68.7223 19.5846 64.4766 19.6506 62.4557 19.6506M73.7076 21.2601C70.8624 21.385 65.9704 21.4687 63.9376 21.4687C63.3655 21.4687 62.9007 21.2901 62.9007 21.0739C62.9007 20.8559 63.3655 20.6786 63.9376 20.6786C65.8819 20.6786 70.4482 20.7552 73.3299 20.8701C73.4601 21.0097 73.5874 21.1411 73.7076 21.2601M66.2848 22.3272C67.9634 22.3272 73.0734 22.4539 73.0734 22.6071C73.0734 22.7627 67.9628 22.8881 66.2848 22.8881C65.9578 22.8881 65.6933 22.7627 65.6933 22.6071C65.6933 22.4539 65.9578 22.3272 66.2848 22.3272ZM66.3034 11.9949C64.1905 12.0308 62.2975 12.0508 61.079 12.0508C60.2052 12.0508 59.4965 11.7816 59.4965 11.4481C59.4965 11.1152 60.2052 10.8448 61.079 10.8448C62.4942 10.8448 64.8198 10.8719 67.3409 10.9196C66.9866 11.2698 66.6407 11.6283 66.3034 11.9949ZM76.6666 9.30008C77.9044 9.36726 78.6834 9.4409 78.6834 9.51749C78.6834 9.60174 77.7406 9.68245 76.2818 9.75433C76.5935 9.51985 76.6618 9.31539 76.6666 9.30008ZM61.5647 10.0839C60.7422 10.0839 60.0753 9.83057 60.0753 9.51714C60.0753 9.20429 60.7422 8.94974 61.5647 8.94974C63.2516 8.94974 66.3112 8.99097 69.3803 9.05873C69.0172 9.36483 68.6603 9.67815 68.3098 9.9985C65.616 10.0527 63.0554 10.0839 61.5647 10.0839M70.7372 7.9694C67.5991 8.04892 64.1995 8.09783 62.4555 8.09783C61.7261 8.09783 61.1357 7.87335 61.1357 7.59585C61.1357 7.31835 61.7261 7.09269 62.4555 7.09269C64.3804 7.09269 68.3268 7.15278 71.7099 7.24822C71.5414 7.37077 71.3717 7.49331 71.1997 7.62177C71.043 7.73844 70.8886 7.85331 70.7372 7.9694M63.9374 6.06515C63.3653 6.06515 62.9004 5.88897 62.9004 5.6704C62.9004 5.45239 63.3653 5.27503 63.9374 5.27503C66.0956 5.27503 71.4784 5.37047 74.2123 5.50657C74.0379 5.6209 73.8635 5.73932 73.6873 5.85835C70.838 5.98147 65.966 6.06515 63.9374 6.06515ZM60.916 13.9854C60.0263 13.9854 59.304 13.7114 59.304 13.3714C59.304 13.0338 60.0263 12.7587 60.916 12.7587C62.0313 12.7587 63.7005 12.7752 65.5882 12.8041C65.2691 13.1791 64.9601 13.5626 64.6614 13.9542C63.1584 13.9742 61.8445 13.9854 60.916 13.9854ZM65.6935 4.13664C65.6935 3.98169 65.958 3.8562 66.285 3.8562C67.963 3.8562 73.0737 3.98169 73.0737 4.13664C73.0737 4.29045 67.9636 4.41651 66.285 4.41651C65.958 4.41651 65.6935 4.29045 65.6935 4.13664Z" fill="#747F8A"/>
<path d="M79.43 12.9176C79.4418 13.2198 79.44 13.5223 79.4246 13.8243C76.4516 13.9422 73.6323 14.1213 73.6323 14.3228C73.6323 14.5208 76.3886 14.6981 79.3274 14.8154C79.2763 15.1512 79.2097 15.4844 79.1277 15.814C76.2307 15.9325 73.5422 16.1069 73.5422 16.3031C73.5422 16.4922 76.0521 16.6625 78.8313 16.7809C78.7041 17.1356 78.5597 17.4803 78.3977 17.8102C76.0109 17.9251 74.0383 18.0783 74.0383 18.2456C74.0383 18.4018 75.7617 18.5461 77.934 18.6575C77.812 18.856 77.6848 19.0505 77.5516 19.2343C77.4102 19.4346 77.2564 19.6332 77.0938 19.8282C75.7357 19.9313 74.8036 20.0485 74.8036 20.174C74.8036 20.2819 75.4712 20.3826 76.4999 20.4728C75.9384 21.0284 75.275 21.5474 74.4931 22.0005C74.4931 22.0005 73.5722 21.2075 72.8122 20.2813C72.1346 19.4552 70.697 17.2776 70.3588 16.7903C70.02 16.303 69.7973 16.1605 69.4013 16.3019C68.8705 16.4898 68.2536 16.5841 68.0639 16.5841C67.8742 16.5841 67.7699 16.5105 68.0881 16.3844C68.405 16.2565 69.6582 15.6649 70.2751 14.4424C70.968 13.0655 70.3588 11.1642 70.3588 11.1642C70.1261 12.1805 69.597 12.5599 69.597 12.5599C69.7678 11.616 69.5816 10.7606 69.1156 10.1602L68.8558 11.3551C68.8558 11.3551 68.6931 11.3468 68.2907 11.685C67.8889 12.0238 67.7781 12.5175 67.7781 12.5175C68.0945 12.6448 68.4752 12.3272 68.4752 12.3272C67.9891 14.146 67.2921 15.6267 66.7836 16.4097C66.2757 17.1927 65.8568 17.4879 65.3477 17.6947C64.9182 17.8668 64.7768 17.6647 64.7768 17.6647C64.4015 17.3406 64.121 17.0437 63.8288 16.6908C63.8288 16.6908 63.8052 16.6495 63.8842 16.6507C64.0933 16.6536 64.4657 16.296 64.547 16.1475C64.6401 15.9772 64.6301 15.847 64.5836 15.8382C64.5376 15.8305 64.4581 15.9655 64.0544 16.22C63.6532 16.4739 63.4688 16.2978 63.335 16.1563C63.2314 16.0438 63.3333 15.9048 63.3981 15.8176C63.4594 15.7398 65.5822 11.781 71.1995 7.62196C78.5609 2.17134 83.262 0.699521 83.5313 0.593468C83.7093 0.523372 83.9997 0.430842 84.0657 0.498603C84.1388 0.575216 84.1747 0.636489 84.1647 0.725443C84.1553 0.81382 84.1082 0.859206 83.7676 1.00946C80.9418 2.25442 77.643 4.32954 75.7688 5.53735C73.4639 6.66037 71.2632 8.26414 71.1831 8.30243C71.0057 8.4126 71.1365 8.5729 71.2438 8.50571C75.136 5.91682 79.6992 4.15336 84.7421 2.70867C84.9831 2.64033 85.1151 2.64033 85.1551 2.69336C85.2005 2.75227 85.22 2.81942 85.227 2.89367C85.2335 2.98617 85.1569 3.03508 84.9501 3.11578C79.5325 5.12845 75.5396 6.99796 72.9713 8.72606C72.9713 8.72606 72.7056 8.88632 72.702 9.0719C72.7009 9.1426 72.8446 9.15085 72.8446 9.15085C74.1302 9.17383 75.8489 9.24926 76.6667 9.29698C76.6667 9.29698 76.55 9.71119 75.767 10.0447C75.1625 10.3027 74.6028 10.2615 74.0489 10.2662C73.9258 10.2638 73.8215 10.3882 73.9199 10.5207C73.9694 10.5867 75.1478 12.4839 79.43 12.9175M40.1716 22.8387H39.4457C39.4457 22.8387 39.3479 22.3921 39.6107 22.2212C39.8747 22.048 40.1716 21.9149 40.1716 21.9149L40.1716 22.8387ZM43.616 21.1666C43.616 21.1666 43.1747 21.4199 42.8954 21.6686C42.6179 21.9149 42.9526 22.0085 42.9526 22.0085V22.8387H40.8462V19.9334C40.8462 19.9334 40.0785 20.6393 40.0066 20.733C39.9324 20.8331 40.1893 20.9238 40.1893 20.9238L40.1457 21.199C40.1457 21.199 39.8399 21.3575 39.4687 21.6085C39.0999 21.8566 38.8265 22.173 38.8265 22.3921C38.8265 22.6119 38.7334 23.4745 38.7334 23.4745H43.616V21.1666ZM39.2554 20.1043C39.4958 20.1043 39.6655 20.0094 39.6655 19.8179C39.6655 19.6259 39.553 19.4921 39.2554 19.4921C38.9909 19.4921 38.9202 19.6076 38.9202 19.8179C38.9202 20.03 39.0121 20.1043 39.2554 20.1043M40.1533 20.1043C40.3961 20.1043 40.5605 20.0094 40.5605 19.8179C40.5605 19.6259 40.4491 19.4921 40.1533 19.4921C39.8876 19.4921 39.8181 19.6076 39.8181 19.8179C39.8181 20.03 39.9094 20.1043 40.1533 20.1043M41.5138 23.7242C41.251 23.7242 41.1785 23.8368 41.1785 24.0483C41.1785 24.2581 41.2716 24.3346 41.5138 24.3346C41.7542 24.3346 41.9244 24.2392 41.9244 24.0483C41.9244 23.8556 41.8137 23.7242 41.5138 23.7242M42.4471 23.7242C42.1843 23.7242 42.1124 23.8368 42.1124 24.0483C42.1124 24.2581 42.2078 24.3346 42.4471 24.3346C42.691 24.3346 42.8583 24.2392 42.8583 24.0483C42.8583 23.8556 42.7482 23.7242 42.4471 23.7242ZM52.9682 20.0471C53.2104 20.0471 53.3801 19.9546 53.3801 19.7631C53.3801 19.5728 53.2681 19.4367 52.9682 19.4367C52.706 19.4367 52.6347 19.5522 52.6347 19.7631C52.6347 19.9741 52.7284 20.0471 52.9682 20.0471ZM53.9009 20.0471C54.1413 20.0471 54.3098 19.9546 54.3098 19.7631C54.3098 19.5728 54.1979 19.4367 53.9009 19.4367C53.6369 19.4367 53.5668 19.5522 53.5668 19.7631C53.5668 19.9741 53.657 20.0471 53.9009 20.0471ZM56.4757 20.1261C56.3443 20.2398 56.3826 20.3759 56.5493 20.357V23.4786H57.241V19.5929C57.241 19.5929 56.6047 20.013 56.4757 20.1261ZM53.6959 21.8766H53.2481C53.2481 21.6309 53.6959 21.4948 53.6959 21.4948V21.8766ZM50.7481 22.3921C50.7481 22.5052 50.7428 22.6896 50.7375 22.8387H46.8294V22.1517C46.9314 21.8872 47.1034 21.8565 47.3697 21.8565H50.2267C50.8436 21.8565 50.7481 22.1812 50.7481 22.3921M55.3185 20.3535V22.8387H54.3882V20.5821C54.3882 20.5821 54.1979 20.6552 53.9368 20.7706C53.6782 20.8879 52.7426 21.2679 52.7426 21.7817V22.3756H53.6959V22.8387H51.4345C51.4363 22.7297 51.4387 22.5695 51.4387 22.3344C51.4387 21.5938 50.8077 21.1907 50.2462 21.1907H47.6319C47.1741 21.1907 46.9532 21.3015 46.8295 21.4282V19.5151C46.8295 19.5151 46.4211 19.802 46.1212 20.03C45.8219 20.2581 46.1212 20.4112 46.1212 20.4112V22.8387H45.2646L45.2463 20.7553C45.2463 20.7553 44.65 21.1907 44.4792 21.3233C44.3124 21.4553 44.4049 21.5731 44.5917 21.5731C44.5917 21.5731 44.5575 23.1115 44.5575 23.4744C44.5575 23.8397 44.2553 24.2569 43.6207 24.0672C43.6207 24.0672 43.4192 24.106 43.5865 24.2581C43.7533 24.4095 43.9548 24.525 44.1804 24.525C44.4049 24.525 45.2274 24.37 45.2274 23.4744H56.0078V19.5905C56.0078 19.5905 55.3733 20.0094 55.2425 20.1231C55.1111 20.2368 55.1494 20.3735 55.3185 20.3535" fill="#5C0632"/>
</svg>
